<svg width="15" height="15" viewBox="0 0 15 15" fill="none" xmlns="http://www.w3.org/2000/svg">
<path d="M14.2769 0C14.6762 1.56731e-08 14.9998 0.323846 15 0.723022V13.1422C15 13.5415 14.6763 13.8652 14.2769 13.8652C13.8778 13.865 13.5539 13.5413 13.5539 13.1422V9.97897L13.5341 7.40462C13.5205 5.65548 11.4683 4.76323 10.1822 5.87314L10.0608 5.98682L10.0587 5.98894L1.23376 14.7888C0.951113 15.0706 0.49332 15.0705 0.211316 14.7881C-0.0705862 14.5054 -0.0705262 14.0469 0.212022 13.765L9.03482 4.96654C10.324 3.67037 9.41119 1.46276 7.58306 1.45593L4.95988 1.44675L4.95917 1.44604H1.85796C1.45862 1.44604 1.1349 1.12234 1.1349 0.723022C1.13506 0.323845 1.45872 -7.83653e-08 1.85796 0H14.2769Z" fill="black"/>
</svg>
