<svg width="30" height="30" viewBox="0 0 30 30" fill="none" xmlns="http://www.w3.org/2000/svg">
<path d="M26.5 10.8682C26.5 7.78022 24.2634 5.375 21.25 5.375C19.6948 5.375 18.0619 5.85211 15.707 8.20703C15.3165 8.59756 14.6835 8.59756 14.293 8.20703C11.9381 5.85211 10.3052 5.375 8.75 5.375C5.73656 5.375 3.5 7.78022 3.5 10.8682C3.50005 13.196 5.0291 15.8199 7.18848 18.3027C9.31137 20.7435 11.8786 22.8627 13.6123 24.1592C14.4439 24.7808 15.5561 24.7808 16.3877 24.1592C18.1214 22.8627 20.6886 20.7435 22.8115 18.3027C24.9709 15.8199 26.5 13.1961 26.5 10.8682ZM28.5 10.8682C28.5 13.9655 26.5357 17.0691 24.3203 19.6162C22.0683 22.2054 19.3788 24.4201 17.5859 25.7607C16.0441 26.9136 13.9559 26.9136 12.4141 25.7607C10.6212 24.4201 7.93172 22.2054 5.67969 19.6162C3.46427 17.0691 1.50005 13.9655 1.5 10.8682C1.5 6.78408 4.52659 3.375 8.75 3.375C10.7462 3.375 12.6766 4.01621 15 6.12207C17.3234 4.01621 19.2538 3.375 21.25 3.375C25.4734 3.375 28.5 6.78408 28.5 10.8682Z" fill="white"/>
</svg>
