<svg width="30" height="30" viewBox="0 0 30 30" fill="none" xmlns="http://www.w3.org/2000/svg">
<path fill-rule="evenodd" clip-rule="evenodd" d="M13.75 2.75C19.8252 2.75 24.75 7.67487 24.75 13.75C24.75 16.4272 23.792 18.8797 22.2021 20.7871L26.958 25.543C27.3484 25.9334 27.3483 26.5665 26.958 26.957C26.5675 27.3475 25.9345 27.3475 25.5439 26.957L20.7881 22.2012C18.8805 23.7915 16.4277 24.75 13.75 24.75C7.67487 24.75 2.75 19.8252 2.75 13.75C2.75 7.67486 7.67486 2.75 13.75 2.75ZM13.75 4.75C8.77943 4.75 4.75 8.77943 4.75 13.75C4.75 18.7206 8.77943 22.75 13.75 22.75C18.7206 22.75 22.75 18.7206 22.75 13.75C22.75 8.77943 18.7206 4.75 13.75 4.75Z" fill="white"/>
</svg>
