<svg width="30" height="30" viewBox="0 0 30 30" fill="none" xmlns="http://www.w3.org/2000/svg">
<path d="M20.5 10.625C20.5 7.58744 18.0375 5.125 15 5.125C11.9624 5.125 9.5 7.58744 9.5 10.625C9.5 13.6625 11.9624 16.125 15 16.125C18.0375 16.125 20.5 13.6625 20.5 10.625ZM22 10.625C22 13.2609 20.5422 15.555 18.3896 16.749C21.9622 18.1142 24.5 21.5726 24.5 25.625C24.5 26.0392 24.1642 26.375 23.75 26.375C23.3358 26.375 23 26.0392 23 25.625C23 21.2067 19.4183 17.625 15 17.625C10.5817 17.625 7 21.2067 7 25.625C7 26.0392 6.66421 26.375 6.25 26.375C5.83579 26.375 5.5 26.0392 5.5 25.625C5.5 21.573 8.03725 18.1144 11.6094 16.749C9.45724 15.5549 8 13.2606 8 10.625C8 6.75901 11.134 3.625 15 3.625C18.866 3.625 22 6.75901 22 10.625Z" fill="white"/>
</svg>
